<svg width="86" height="39" viewBox="0 0 86 39" fill="none" xmlns="http://www.w3.org/2000/svg">
<path fill-rule="evenodd" clip-rule="evenodd" d="M41.6397 1.09572C42.1612 0.722814 42.8618 0.722814 43.3834 1.09572C49.8802 5.74098 52.8255 11.3098 53.0111 19.2996C53.0968 23.1148 52.7299 26.6081 51.6133 29.6258C50.4681 32.6453 48.4315 35.4351 45.4332 37.791C45.0549 38.0859 44.5585 38.182 44.0976 38.0495C43.1793 37.7857 43.023 36.6961 42.5115 36.0169C41.9997 36.6965 41.8444 37.7855 40.9254 38.0495C40.4645 38.182 39.9682 38.0859 39.5899 37.791C36.5915 35.4351 34.555 32.6453 33.4097 29.6258C32.2931 26.6081 31.9262 23.1148 32.0119 19.2996C32.1976 11.3098 35.1428 5.74098 41.6397 1.09572ZM44.9984 34.3495C46.8746 32.6228 48.0052 30.7385 48.8041 28.5721C49.8092 25.9226 50.0991 22.9965 50.0119 19.3695C49.8672 13.1394 48.4108 9.08494 43.9984 5.32054V16.3315C45.7236 16.776 46.4984 18.4699 46.4984 20.3355C46.4984 22.2012 45.7236 23.8951 43.9984 24.3395V33.3485C43.9984 33.3485 44.8001 34.0884 44.9984 34.3495ZM39.9984 34.3495C38.1221 32.6228 37.0179 30.7385 36.2189 28.5721C35.2139 25.9226 34.9239 22.9965 35.0111 19.3695C35.1556 13.1518 36.6044 9.07993 40.9984 5.32054V16.3315C39.2731 16.776 38.4984 18.4699 38.4984 20.3355C38.4984 22.2012 39.2731 23.8951 40.9984 24.3395V33.3485C40.9984 33.3485 40.1892 34.098 39.9984 34.3495ZM42.4984 18.3335C41.3938 18.3335 40.4984 19.2298 40.4984 20.3355C40.4984 21.4412 41.3938 22.3375 42.4984 22.3375C43.6029 22.3375 44.4984 21.4412 44.4984 20.3355C44.4984 19.2298 43.6029 18.3335 42.4984 18.3335Z" fill="#1188EE"/>
<path fill-rule="evenodd" clip-rule="evenodd" d="M9.63967 1.09572C10.1612 0.722814 10.8618 0.722814 11.3834 1.09572C17.8802 5.74098 20.8255 11.3098 21.0111 19.2996C21.0968 23.1148 20.7299 26.6081 19.6133 29.6258C18.4681 32.6453 16.4315 35.4351 13.4332 37.791C13.0549 38.0859 12.5585 38.182 12.0976 38.0495C11.1793 37.7857 11.023 36.6961 10.5115 36.0169C9.99974 36.6965 9.84439 37.7855 8.9254 38.0495C8.46452 38.182 7.96817 38.0859 7.58987 37.791C4.5915 35.4351 2.55499 32.6453 1.40971 29.6258C0.293102 26.6081 -0.0737632 23.1148 0.0119281 19.2996C0.197553 11.3098 3.1428 5.74098 9.63967 1.09572ZM12.9984 34.3495C14.8746 32.6228 16.0052 30.7385 16.8041 28.5721C17.8092 25.9226 18.0991 22.9965 18.0119 19.3695C17.8672 13.1394 16.4108 9.08494 11.9984 5.32054V16.3315C13.7236 16.776 14.4984 18.4699 14.4984 20.3355C14.4984 22.2012 13.7236 23.8951 11.9984 24.3395V33.3485C11.9984 33.3485 12.8001 34.0884 12.9984 34.3495ZM7.99835 34.3495C6.12206 32.6228 5.01787 30.7385 4.21893 28.5721C3.21389 25.9226 2.92391 22.9965 3.01112 19.3695C3.15557 13.1518 4.60442 9.07993 8.99835 5.32054V16.3315C7.27312 16.776 6.49835 18.4699 6.49835 20.3355C6.49835 22.2012 7.27312 23.8951 8.99835 24.3395V33.3485C8.99835 33.3485 8.18923 34.098 7.99835 34.3495ZM10.4984 18.3335C9.39378 18.3335 8.49835 19.2298 8.49835 20.3355C8.49835 21.4412 9.39378 22.3375 10.4984 22.3375C11.6029 22.3375 12.4984 21.4412 12.4984 20.3355C12.4984 19.2298 11.6029 18.3335 10.4984 18.3335Z" fill="#1188EE"/>
<path fill-rule="evenodd" clip-rule="evenodd" d="M73.6397 1.09572C74.1612 0.722814 74.8618 0.722814 75.3834 1.09572C81.8802 5.74098 84.8255 11.3098 85.0111 19.2996C85.0968 23.1148 84.7299 26.6081 83.6133 29.6258C82.4681 32.6453 80.4315 35.4351 77.4332 37.791C77.0549 38.0859 76.5585 38.182 76.0976 38.0495C75.1793 37.7857 75.023 36.6961 74.5115 36.0169C73.9997 36.6965 73.8444 37.7855 72.9254 38.0495C72.4645 38.182 71.9682 38.0859 71.5899 37.791C68.5915 35.4351 66.555 32.6453 65.4097 29.6258C64.2931 26.6081 63.9262 23.1148 64.0119 19.2996C64.1976 11.3098 67.1428 5.74098 73.6397 1.09572ZM76.9984 34.3495C78.8746 32.6228 80.0052 30.7385 80.8041 28.5721C81.8092 25.9226 82.0991 22.9965 82.0119 19.3695C81.8672 13.1394 80.4108 9.08494 75.9984 5.32054V16.3315C77.7236 16.776 78.4984 18.4699 78.4984 20.3355C78.4984 22.2012 77.7236 23.8951 75.9984 24.3395V33.3485C75.9984 33.3485 76.8001 34.0884 76.9984 34.3495ZM71.9984 34.3495C70.1221 32.6228 69.0179 30.7385 68.2189 28.5721C67.2139 25.9226 66.9239 22.9965 67.0111 19.3695C67.1556 13.1518 68.6044 9.07993 72.9984 5.32054V16.3315C71.2731 16.776 70.4984 18.4699 70.4984 20.3355C70.4984 22.2012 71.2731 23.8951 72.9984 24.3395V33.3485C72.9984 33.3485 72.1892 34.098 71.9984 34.3495ZM74.4984 18.3335C73.3938 18.3335 72.4984 19.2298 72.4984 20.3355C72.4984 21.4412 73.3938 22.3375 74.4984 22.3375C75.6029 22.3375 76.4984 21.4412 76.4984 20.3355C76.4984 19.2298 75.6029 18.3335 74.4984 18.3335Z" fill="#1188EE"/>
</svg>
