<svg width="53" height="39" viewBox="0 0 53 39" fill="none" xmlns="http://www.w3.org/2000/svg">
<path fill-rule="evenodd" clip-rule="evenodd" d="M9.63967 1.09572C10.1612 0.722814 10.8618 0.722814 11.3834 1.09572C17.8802 5.74098 20.8255 11.3098 21.0111 19.2996C21.0968 23.1148 20.7299 26.6081 19.6133 29.6258C18.4681 32.6453 16.4315 35.4351 13.4332 37.791C13.0549 38.0859 12.5585 38.182 12.0976 38.0495C11.1793 37.7857 11.023 36.6961 10.5115 36.0169C9.99974 36.6965 9.84439 37.7855 8.9254 38.0495C8.46452 38.182 7.96817 38.0859 7.58987 37.791C4.5915 35.4351 2.55499 32.6453 1.40971 29.6258C0.293102 26.6081 -0.0737632 23.1148 0.0119281 19.2996C0.197553 11.3098 3.1428 5.74098 9.63967 1.09572ZM12.9984 34.3495C14.8746 32.6228 16.0052 30.7385 16.8041 28.5721C17.8092 25.9226 18.0991 22.9965 18.0119 19.3695C17.8672 13.1394 16.4108 9.08494 11.9984 5.32054V16.3315C13.7236 16.776 14.4984 18.4699 14.4984 20.3355C14.4984 22.2012 13.7236 23.8951 11.9984 24.3395V33.3485C11.9984 33.3485 12.8001 34.0884 12.9984 34.3495ZM7.99835 34.3495C6.12206 32.6228 5.01787 30.7385 4.21893 28.5721C3.21389 25.9226 2.92391 22.9965 3.01112 19.3695C3.15557 13.1518 4.60442 9.07993 8.99835 5.32054V16.3315C7.27312 16.776 6.49835 18.4699 6.49835 20.3355C6.49835 22.2012 7.27312 23.8951 8.99835 24.3395V33.3485C8.99835 33.3485 8.18923 34.098 7.99835 34.3495ZM10.4984 18.3335C9.39378 18.3335 8.49835 19.2298 8.49835 20.3355C8.49835 21.4412 9.39378 22.3375 10.4984 22.3375C11.6029 22.3375 12.4984 21.4412 12.4984 20.3355C12.4984 19.2298 11.6029 18.3335 10.4984 18.3335Z" fill="#1188EE"/>
<path fill-rule="evenodd" clip-rule="evenodd" d="M40.6397 1.09572C41.1612 0.722814 41.8618 0.722814 42.3834 1.09572C48.8802 5.74098 51.8255 11.3098 52.0111 19.2996C52.0968 23.1148 51.7299 26.6081 50.6133 29.6258C49.4681 32.6453 47.4315 35.4351 44.4332 37.791C44.0549 38.0859 43.5585 38.182 43.0976 38.0495C42.1793 37.7857 42.023 36.6961 41.5115 36.0169C40.9997 36.6965 40.8444 37.7855 39.9254 38.0495C39.4645 38.182 38.9682 38.0859 38.5899 37.791C35.5915 35.4351 33.555 32.6453 32.4097 29.6258C31.2931 26.6081 30.9262 23.1148 31.0119 19.2996C31.1976 11.3098 34.1428 5.74098 40.6397 1.09572ZM43.9984 34.3495C45.8746 32.6228 47.0052 30.7385 47.8041 28.5721C48.8092 25.9226 49.0991 22.9965 49.0119 19.3695C48.8672 13.1394 47.4108 9.08494 42.9984 5.32054V16.3315C44.7236 16.776 45.4984 18.4699 45.4984 20.3355C45.4984 22.2012 44.7236 23.8951 42.9984 24.3395V33.3485C42.9984 33.3485 43.8001 34.0884 43.9984 34.3495ZM38.9984 34.3495C37.1221 32.6228 36.0179 30.7385 35.2189 28.5721C34.2139 25.9226 33.9239 22.9965 34.0111 19.3695C34.1556 13.1518 35.6044 9.07993 39.9984 5.32054V16.3315C38.2731 16.776 37.4984 18.4699 37.4984 20.3355C37.4984 22.2012 38.2731 23.8951 39.9984 24.3395V33.3485C39.9984 33.3485 39.1892 34.098 38.9984 34.3495ZM41.4984 18.3335C40.3938 18.3335 39.4984 19.2298 39.4984 20.3355C39.4984 21.4412 40.3938 22.3375 41.4984 22.3375C42.6029 22.3375 43.4984 21.4412 43.4984 20.3355C43.4984 19.2298 42.6029 18.3335 41.4984 18.3335Z" fill="#1188EE"/>
</svg>
